<mxfile host="app.diagrams.net" modified="2024-01-14T16:41:56.790Z" agent="Mozilla/5.0 (Macintosh; Intel Mac OS X 10_15_7) AppleWebKit/537.36 (KHTML, like Gecko) Chrome/120.0.0.0 Safari/537.36" etag="Yt7xFnG9ZvjTa-Ksy0As" version="22.1.17" type="device">
  <diagram name="Page-1" id="N5QHCR21nOe3D69NBD0R">
    <mxGraphModel dx="2242" dy="924" grid="1" gridSize="10" guides="1" tooltips="1" connect="1" arrows="1" fold="1" page="1" pageScale="1" pageWidth="850" pageHeight="1100" math="0" shadow="0">
      <root>
        <mxCell id="0" />
        <mxCell id="1" parent="0" />
        <mxCell id="8yS_gbXwdCy-gXgY2OxM-8" value="" style="rounded=1;whiteSpace=wrap;html=1;fillColor=none;sketch=1;curveFitting=1;jiggle=2;" vertex="1" parent="1">
          <mxGeometry x="460" y="283" width="240" height="230" as="geometry" />
        </mxCell>
        <mxCell id="ssHwQCeSZ3BFbUvAovpc-6" value="" style="rounded=1;whiteSpace=wrap;html=1;sketch=1;curveFitting=1;jiggle=2;fillColor=none;" parent="1" vertex="1">
          <mxGeometry x="170" y="400" width="580" height="400" as="geometry" />
        </mxCell>
        <mxCell id="PP6BNEFwQDtXV-yD8yWl-1" value="" style="editableCssRules=.*;html=1;shape=image;verticalLabelPosition=bottom;labelBackgroundColor=#ffffff;verticalAlign=top;aspect=fixed;imageAspect=0;image=data:image/svg+xml,PHN2ZyB4bWxucz0iaHR0cDovL3d3dy53My5vcmcvMjAwMC9zdmciIHhtbG5zOnY9Imh0dHBzOi8vdmVjdGEuaW8vbmFubyIgd2lkdGg9IjcwMi44NDYzMTM0NzY1NjI1IiBoZWlnaHQ9IjY4MS45NjcxMDIwNTA3ODEyIiB2aWV3Qm94PSIxMC4wMDEwMjYxNTM1NjQ0NTMgMTAuMDAwOTMzNjQ3MTU1NzYyIDcwMi44NDYzMTM0NzY1NjI1IDY4MS45NjcxMDIwNTA3ODEyIj4mI3hhOwk8c3R5bGUgdHlwZT0idGV4dC9jc3MiPiYjeGE7CS5zdDB7ZmlsbDojMzI2Y2U1O30mI3hhOwkuc3Qxe2ZpbGw6I2ZmZjt9JiN4YTsJPC9zdHlsZT4mI3hhOwk8cGF0aCBjbGFzcz0ic3QwIiBkPSJNMzU4Ljk4NyAxMC4wNmMtNi4yMTMuMzEzLTEyLjMwMSAxLjg1NC0xNy45MDYgNC41MzFMOTYuNzM3IDEzMS4zNDJjLTEyLjgxMSA2LjExOC0yMi4xMTYgMTcuNjg5LTI1LjI4MSAzMS40MzhsLTYwLjI4MSAyNjIuMjVjLTIuODEyIDEyLjIwNy0uNTI0IDI1LjAyNCA2LjM0NCAzNS41MzFhNDYuMzUgNDYuMzUgMCAwIDAgMi42NTYgMy42ODhsMTY5LjEyNSAyMTAuMjgxYzguODY4IDExLjAyMiAyMi4zMTMgMTcuNDQgMzYuNTMxIDE3LjQzOGwyNzEuMjE5LS4wNjJjMTQuMjEyLjAxIDI3LjY1Ny02LjM5NiAzNi41MzEtMTcuNDA2bDE2OS4wNjMtMjEwLjMxM2M4Ljg3My0xMS4wMjggMTIuMTk3LTI1LjQ2NCA5LjAzMS0zOS4yMTlsLTYwLjM3NS0yNjIuMjVjLTMuMTY1LTEzLjc0OC0xMi40Ny0yNS4zMTktMjUuMjgxLTMxLjQzN0wzODEuNjQzIDE0LjU5MmMtNy4wNS0zLjM2OC0xNC44NDEtNC45MjYtMjIuNjU2LTQuNTMxeiIvPiYjeGE7CTxwYXRoIGNsYXNzPSJzdDEgc3QyIiBkPSJNMzYxLjQwOCA5OS4zMDhjLTguMDc3LjAwMS0xNC42MjYgNy4yNzYtMTQuNjI1IDE2LjI1IDAgLjEzOC4wMjguMjY5LjAzMS40MDYtLjAxMiAxLjIxOS0uMDcxIDIuNjg4LS4wMzEgMy43NS4xOTMgNS4xNzYgMS4zMjEgOS4xMzcgMiAxMy45MDYgMS4yMyAxMC4yMDcgMi4yNjEgMTguNjY3IDEuNjI1IDI2LjUzMS0uNjE5IDIuOTY1LTIuODAzIDUuNjc3LTQuNzUgNy41NjNsLS4zNDQgNi4xODhjLTguNzc3LjcyNy0xNy42MTIgMi4wNTktMjYuNDM3IDQuMDYzLTM3Ljk3NSA4LjYyMi03MC42NyAyOC4xODMtOTUuNTYyIDU0LjU5NC0xLjYxNS0xLjEwMi00LjQ0MS0zLjEyOS01LjI4MS0zLjc1LTIuNjExLjM1My01LjI1IDEuMTU4LTguNjg3LS44NDQtNi41NDUtNC40MDYtMTIuNTA2LTEwLjQ4Ny0xOS43MTktMTcuODEyLTMuMzA1LTMuNTA0LTUuNjk4LTYuODQxLTkuNjI1LTEwLjIxOS0uODkyLS43NjctMi4yNTMtMS44MDUtMy4yNS0yLjU5NC0zLjA3LTIuNDQ4LTYuNjkxLTMuNzI0LTEwLjE4Ny0zLjg0NC00LjQ5Ni0uMTU0LTguODI0IDEuNjA0LTExLjY1NiA1LjE1Ni01LjAzNSA2LjMxNS0zLjQyMyAxNS45NjggMy41OTQgMjEuNTYzLjA3MS4wNTcuMTQ3LjEwMS4yMTkuMTU2Ljk2NC43ODIgMi4xNDUgMS43ODMgMy4wMzEgMi40MzggNC4xNjcgMy4wNzcgNy45NzMgNC42NTEgMTIuMTI1IDcuMDk0IDguNzQ3IDUuNDAyIDE1Ljk5OCA5Ljg4MSAyMS43NSAxNS4yODEgMi4yNDYgMi4zOTQgMi42MzkgNi42MTMgMi45MzggOC40MzhsNC42ODggNC4xODhjLTI1LjA5MyAzNy43NjQtMzYuNzA3IDg0LjQwOS0yOS44NDQgMTMxLjkzOGwtNi4xMjUgMS43ODFjLTEuNjE0IDIuMDg1LTMuODk1IDUuMzY1LTYuMjgxIDYuMzQ0LTcuNTI1IDIuMzctMTUuOTk0IDMuMjQxLTI2LjIxOSA0LjMxMy00LjguMzk5LTguOTQyLjE2MS0xNC4wMzEgMS4xMjUtMS4xMi4yMTItMi42ODEuNjE5LTMuOTA2LjkwNi0uMDQzLjAwOS0uMDgyLjAyMi0uMTI1LjAzMS0uMDY3LjAxNS0uMTU1LjA0OC0uMjE5LjA2My04LjYyIDIuMDgzLTE0LjE1OCAxMC4wMDYtMTIuMzc1IDE3LjgxM3MxMC4yMDMgMTIuNTU3IDE4Ljg3NSAxMC42ODhjLjA2My0uMDE0LjE1NC0uMDE3LjIxOS0uMDMxLjA5OC0uMDIyLjE4NC0uMDcuMjgxLS4wOTQgMS4yMDktLjI2NSAyLjcyNC0uNTYxIDMuNzgxLS44NDQgNS4wMDMtMS4zNCA4LjYyNy0zLjMwOCAxMy4xMjUtNS4wMzEgOS42NzctMy40NzEgMTcuNjkyLTYuMzcgMjUuNS03LjUgMy4yNjEtLjI1NSA2LjY5NyAyLjAxMiA4LjQwNiAyLjk2OWw2LjM3NS0xLjA5NGMxNC42NyA0NS40ODMgNDUuNDE0IDgyLjI0NSA4NC4zNDQgMTA1LjMxMmwtMi42NTYgNi4zNzVjLjk1NyAyLjQ3NSAyLjAxMyA1LjgyNSAxLjMgOC4yNjktMi44MzkgNy4zNjEtNy43MDEgMTUuMTMxLTEzLjIzOCAyMy43OTMtMi42ODEgNC4wMDItNS40MjUgNy4xMDgtNy44NDQgMTEuNjg4LS41NzkgMS4wOTYtMS4zMTYgMi43NzktMS44NzUgMy45MzgtMy43NTkgOC4wNDItMS4wMDIgMTcuMzA1IDYuMjE5IDIwLjc4MSA3LjI2NiAzLjQ5OCAxNi4yODQtLjE5MSAyMC4xODctOC4yNS4wMDYtLjAxMS4wMjYtLjAyLjAzMS0uMDMxcy0uMDA0LS4wMjMgMC0uMDMxYy41NTYtMS4xNDMgMS4zNDQtMi42NDQgMS44MTMtMy43MTkgMi4wNzItNC43NDcgMi43NjItOC44MTUgNC4yMTktMTMuNDA2IDMuODctOS43MiA1Ljk5Ni0xOS45MTkgMTEuMzIzLTI2LjI3NCAxLjQ1OS0xLjc0IDMuODM3LTIuNDA5IDYuMzAyLTMuMDdsMy4zMTMtNmMzMy45MzggMTMuMDI3IDcxLjkyNyAxNi41MjIgMTA5Ljg3NSA3LjkwNmExODkuNzcgMTg5Ljc3IDAgMCAwIDI1LjA5NC03LjU2MmwzLjEyNSA1LjYyNWMyLjUwNi44MTUgNS4yNCAxLjIzNiA3LjQ2OSA0LjUzMSAzLjk4NSA2LjgwOSA2LjcxMSAxNC44NjQgMTAuMDMxIDI0LjU5NCAxLjQ1NyA0LjU5MSAyLjE3OCA4LjY1OSA0LjI1IDEzLjQwNi40NzIgMS4wODIgMS4yNTYgMi42MDUgMS44MTMgMy43NSAzLjg5NSA4LjA4NSAxMi45NDIgMTEuNzg3IDIwLjIxOSA4LjI4MSA3LjIxOS0zLjQ3OCA5Ljk4LTEyLjc0IDYuMjE5LTIwLjc4MWwtMS45MDYtMy45MzdjLTIuNDE5LTQuNTgtNS4xNjMtNy42NTQtNy44NDQtMTEuNjU2LTUuNTM3LTguNjYyLTEwLjEzLTE1Ljg1OC0xMi45NjktMjMuMjE5LTEuMTg3LTMuNzk3LjItNi4xNTggMS4xMjUtOC42MjUtLjU1NC0uNjM1LTEuNzM5LTQuMjItMi40MzctNS45MDYgNDAuNDU3LTIzLjg4OCA3MC4yOTktNjIuMDIxIDg0LjMxMy0xMDYuMDYyIDEuODkyLjI5NyA1LjE4Mi44NzkgNi4yNSAxLjA5NCAyLjItMS40NTEgNC4yMjItMy4zNDQgOC4xODgtMy4wMzEgNy44MDggMS4xMjkgMTUuODIzIDQuMDMgMjUuNSA3LjUgNC40OTggMS43MjMgOC4xMjIgMy43MjMgMTMuMTI1IDUuMDYzIDEuMDU3LjI4MyAyLjU3Mi41NDcgMy43ODEuODEzLjA5Ny4wMjQuMTgzLjA3MS4yODEuMDk0LjA2NS4wMTUuMTU2LjAxNy4yMTkuMDMxIDguNjcyIDEuODY3IDE3LjA5NC0yLjg3OSAxOC44NzUtMTAuNjg3cy0zLjc1NC0xNS43MzItMTIuMzc1LTE3LjgxMmMtMS4yNTQtLjI4NS0zLjAzMi0uNzY5LTQuMjUtMS01LjA4OS0uOTY0LTkuMjMxLS43MjYtMTQuMDMxLTEuMTI1LTEwLjIyNS0xLjA3MS0xOC42OTMtMS45NDMtMjYuMjE5LTQuMzEyLTMuMDY4LTEuMTktNS4yNTEtNC44NDEtNi4zMTMtNi4zNDRsLTUuOTA2LTEuNzE5YzMuMDYyLTIyLjE1NCAyLjIzNy00NS4yMTEtMy4wNjItNjguMjgxLTUuMzQ4LTIzLjI4NS0xNC44LTQ0LjU4MS0yNy40MDYtNjMuMzQ0bDUuMTg4LTQuNjU2Yy4yMzctMi42MjQuMDMzLTUuMzc2IDIuNzUtOC4yODEgNS43NTEtNS40MDEgMTMuMDAzLTkuODc5IDIxLjc1LTE1LjI4MSA0LjE1Mi0yLjQ0MyA3Ljk5LTQuMDE3IDEyLjE1Ni03LjA5NC45NDItLjY5NiAyLjIyOS0xLjc5OCAzLjIxOS0yLjU5NCA3LjAxNS01LjU5NiA4LjYzMS0xNS4yNDggMy41OTQtMjEuNTYycy0xNC43OTctNi45MDktMjEuODEyLTEuMzEyYy0uOTk5Ljc5MS0yLjM1NCAxLjgyMy0zLjI1IDIuNTk0LTMuOTI3IDMuMzc4LTYuMzUxIDYuNzE0LTkuNjU2IDEwLjIxOS03LjIxMiA3LjMyNi0xMy4xNzQgMTMuNDM4LTE5LjcxOSAxNy44NDQtMi44MzYgMS42NTEtNi45OSAxLjA4LTguODc1Ljk2OWwtNS41NjIgMy45NjljLTMxLjcxOS0zMy4yNjEtNzQuOTA1LTU0LjUyNS0xMjEuNDA2LTU4LjY1NmwtLjM0NC02LjUzMWMtMS45MDQtMS44MjItNC4yMDMtMy4zNzctNC43ODEtNy4zMTItLjYzNi03Ljg2NC40MjYtMTYuMzI1IDEuNjU2LTI2LjUzMS42NzktNC43NjkgMS44MDctOC43MyAyLTEzLjkwNi4wNDQtMS4xNzctLjAyNi0yLjg4NC0uMDMxLTQuMTU2LS4wMDEtOC45NzQtNi41NDgtMTYuMjUxLTE0LjYyNS0xNi4yNXptLTE4LjMxMiAxMTMuNDM4bC00LjM0NCA3Ni43MTktLjMxMi4xNTZjLS4yOTEgNi44NjMtNS45NCAxMi4zNDQtMTIuODc1IDEyLjM0NGExMi44MiAxMi44MiAwIDAgMS03LjU5NC0yLjQ2OWwtLjEyNS4wNjMtNjIuOTA2LTQ0LjU5NGMxOS4zMzQtMTkuMDExIDQ0LjA2My0zMy4wNiA3Mi41NjItMzkuNTMxIDUuMjA2LTEuMTgyIDEwLjQxLTIuMDU5IDE1LjU5NC0yLjY4N3ptMzYuNjU2IDBjMzMuMjczIDQuMDkyIDY0LjA0NSAxOS4xNTkgODcuNjI1IDQyLjI1bC02Mi41IDQ0LjMxMy0uMjE5LS4wOTRhMTIuOTEgMTIuOTEgMCAwIDEtMTcuNjg3LTIuMzc1Yy0xLjc3MS0yLjIyMS0yLjcwMS00LjgzMi0yLjgxMi03LjQ2OWwtLjA2Mi0uMDMxek0yMzIuMTI2IDI4My42Mmw1Ny40MzcgNTEuMzc1LS4wNjIuMzEzYTEyLjg4IDEyLjg4IDAgMCAxIDEuNjI1IDE3Ljc1IDEyLjg5IDEyLjg5IDAgMCAxLTYuNjg3IDQuNDA2bC0uMDYyLjI1LTczLjYyNSAyMS4yNWMtMy43NDctMzQuMjY1IDQuMzI5LTY3LjU3NCAyMS4zNzUtOTUuMzQ0em0yNTguMTU2LjAzMWM4LjUzNCAxMy44MzMgMTQuOTk3IDI5LjI4MiAxOC44NDQgNDYuMDMxIDMuODAxIDE2LjU0OCA0Ljc1NSAzMy4wNjcgMy4xODggNDkuMDMxbC03NC0yMS4zMTItLjA2Mi0uMzEyYy02LjYyNy0xLjgxMS0xMC42OTktOC41NTItOS4xNTYtMTUuMzEyLjYzMi0yLjc3IDIuMTAyLTUuMTEzIDQuMDk0LTYuODQ0bC0uMDMxLS4xNTYgNTcuMTI1LTUxLjEyNXptLTE0MC42NTYgNTUuMzEzaDIzLjUzMWwxNC42MjUgMTguMjgxLTUuMjUgMjIuODEzLTIxLjEyNSAxMC4xNTYtMjEuMTg3LTEwLjE4Ny01LjI1LTIyLjgxMnptNzUuNDM4IDYyLjU2M2ExMi44MyAxMi44MyAwIDAgMSAyLjk2OS4yMTlsLjEyNS0uMTU2IDc2LjE1NiAxMi44NzVjLTExLjE0NiAzMS4zMTMtMzIuNDczIDU4LjQ0LTYwLjk2OSA3Ni41OTRsLTI5LjU2Mi03MS40MDYuMDk0LS4xMjVjLTIuNzE2LTYuMzEuMDAyLTEzLjcxIDYuMjUtMTYuNzE5IDEuNi0uNzcgMy4yNzEtMS4xOTcgNC45MzgtMS4yODF6bS0xMjcuOTA2LjMxM2ExMi45IDEyLjkgMCAwIDEgMTIuMzc1IDEwLjAzMSAxMi43NyAxMi43NyAwIDAgMS0uNzE5IDcuOTM4bC4yMTkuMjgxLTI5LjI1IDcwLjY4OGMtMjcuMzQ3LTE3LjU0OS00OS4xMjktNDMuODI0LTYwLjc4MS03Ni4wNjJsNzUuNS0xMi44MTIuMTI1LjE1NmMuODQ1LS4xNTUgMS43MDEtLjIzIDIuNTMxLS4yMTl6bTYzLjc4MSAzMC45NjljMi4wMjQtLjA3NCA0LjA3OS4zNDEgNi4wMzEgMS4yODEgMi41NiAxLjIzMyA0LjUzNyAzLjE3MyA1Ljc4MSA1LjVoLjI4MWwzNy4yMTkgNjcuMjVjLTQuODMgMS42MTktOS43OTYgMy4wMDMtMTQuODc1IDQuMTU2LTI4LjQ2NSA2LjQ2My01Ni44MzkgNC41MDUtODIuNTMxLTQuMjVsMzcuMTI1LTY3LjEyNWguMDYzYTEyLjkxIDEyLjkxIDAgMCAxIDEwLjkwNi02LjgxMnoiIHN0cm9rZT0ibm9uZSIgc3Ryb2tlLXdpZHRoPSIuMjUiLz4mI3hhOzwvc3ZnPg==;fontColor=default;" parent="1" vertex="1">
          <mxGeometry x="150" y="390" width="52.63" height="50" as="geometry" />
        </mxCell>
        <mxCell id="ssHwQCeSZ3BFbUvAovpc-7" value="Rollout&lt;br&gt;Name: projectId" style="sketch=0;html=1;dashed=0;whitespace=wrap;fillColor=#2875E2;strokeColor=#ffffff;points=[[0.005,0.63,0],[0.1,0.2,0],[0.9,0.2,0],[0.5,0,0],[0.995,0.63,0],[0.72,0.99,0],[0.5,1,0],[0.28,0.99,0]];verticalLabelPosition=bottom;align=center;verticalAlign=top;shape=mxgraph.kubernetes.icon;prIcon=crd" parent="1" vertex="1">
          <mxGeometry x="225" y="580" width="50" height="48" as="geometry" />
        </mxCell>
        <mxCell id="ssHwQCeSZ3BFbUvAovpc-22" style="edgeStyle=orthogonalEdgeStyle;rounded=0;orthogonalLoop=1;jettySize=auto;html=1;entryX=-0.001;entryY=0.093;entryDx=0;entryDy=0;entryPerimeter=0;sketch=1;curveFitting=1;jiggle=2;curved=1;" parent="1" source="ssHwQCeSZ3BFbUvAovpc-7" target="8yS_gbXwdCy-gXgY2OxM-3" edge="1">
          <mxGeometry relative="1" as="geometry">
            <mxPoint x="375.9200000000001" y="530.26" as="targetPoint" />
          </mxGeometry>
        </mxCell>
        <mxCell id="ssHwQCeSZ3BFbUvAovpc-23" style="edgeStyle=orthogonalEdgeStyle;rounded=0;orthogonalLoop=1;jettySize=auto;html=1;entryX=0.005;entryY=0.63;entryDx=0;entryDy=0;entryPerimeter=0;sketch=1;curveFitting=1;jiggle=2;curved=1;" parent="1" source="ssHwQCeSZ3BFbUvAovpc-7" target="ssHwQCeSZ3BFbUvAovpc-9" edge="1">
          <mxGeometry relative="1" as="geometry" />
        </mxCell>
        <mxCell id="ssHwQCeSZ3BFbUvAovpc-24" style="edgeStyle=orthogonalEdgeStyle;rounded=0;orthogonalLoop=1;jettySize=auto;html=1;entryX=0.5;entryY=0;entryDx=0;entryDy=0;entryPerimeter=0;curved=1;sketch=1;curveFitting=1;jiggle=2;startArrow=classic;startFill=1;exitX=0.5;exitY=1;exitDx=0;exitDy=0;" parent="1" source="8yS_gbXwdCy-gXgY2OxM-2" target="ssHwQCeSZ3BFbUvAovpc-7" edge="1">
          <mxGeometry relative="1" as="geometry">
            <mxPoint x="325" y="510" as="sourcePoint" />
          </mxGeometry>
        </mxCell>
        <mxCell id="ssHwQCeSZ3BFbUvAovpc-25" value="" style="group;fillColor=none;strokeColor=default;sketch=1;curveFitting=1;jiggle=2;rounded=1;" parent="1" vertex="1" connectable="0">
          <mxGeometry x="225" y="420" width="200" height="90" as="geometry" />
        </mxCell>
        <mxCell id="8yS_gbXwdCy-gXgY2OxM-2" value="" style="rounded=1;whiteSpace=wrap;html=1;fillColor=none;" vertex="1" parent="ssHwQCeSZ3BFbUvAovpc-25">
          <mxGeometry width="200" height="90" as="geometry" />
        </mxCell>
        <mxCell id="ssHwQCeSZ3BFbUvAovpc-5" value="One-Click Operator" style="text;html=1;strokeColor=none;fillColor=none;align=center;verticalAlign=middle;whiteSpace=wrap;rounded=0;" parent="ssHwQCeSZ3BFbUvAovpc-25" vertex="1">
          <mxGeometry x="96.72000000000003" y="33.54727272727274" width="88" height="24.545454545454547" as="geometry" />
        </mxCell>
        <mxCell id="PP6BNEFwQDtXV-yD8yWl-8" value="" style="shape=image;verticalLabelPosition=bottom;labelBackgroundColor=default;verticalAlign=top;aspect=fixed;imageAspect=0;image=https://go.dev/blog/go-brand/Go-Logo/PNG/Go-Logo_Blue.png;" parent="ssHwQCeSZ3BFbUvAovpc-25" vertex="1">
          <mxGeometry x="15.28000000000003" y="9.00181818181818" width="81.44" height="72" as="geometry" />
        </mxCell>
        <mxCell id="ssHwQCeSZ3BFbUvAovpc-26" style="edgeStyle=orthogonalEdgeStyle;rounded=0;orthogonalLoop=1;jettySize=auto;html=1;entryX=0.5;entryY=1;entryDx=0;entryDy=0;curved=1;sketch=1;curveFitting=1;jiggle=2;startArrow=classic;startFill=1;" parent="1" target="PP6BNEFwQDtXV-yD8yWl-1" edge="1">
          <mxGeometry relative="1" as="geometry">
            <mxPoint x="225" y="465" as="sourcePoint" />
          </mxGeometry>
        </mxCell>
        <mxCell id="ssHwQCeSZ3BFbUvAovpc-19" style="edgeStyle=orthogonalEdgeStyle;rounded=0;orthogonalLoop=1;jettySize=auto;html=1;entryX=0.5;entryY=0;entryDx=0;entryDy=0;elbow=vertical;curved=1;startArrow=none;startFill=0;sketch=1;curveFitting=1;jiggle=2;exitX=0;exitY=0.25;exitDx=0;exitDy=0;" parent="1" source="8yS_gbXwdCy-gXgY2OxM-6" target="PP6BNEFwQDtXV-yD8yWl-1" edge="1">
          <mxGeometry relative="1" as="geometry">
            <Array as="points">
              <mxPoint x="485" y="425" />
              <mxPoint x="420" y="425" />
              <mxPoint x="420" y="370" />
              <mxPoint x="176" y="370" />
            </Array>
            <mxPoint x="500" y="425" as="sourcePoint" />
          </mxGeometry>
        </mxCell>
        <mxCell id="8yS_gbXwdCy-gXgY2OxM-3" value="" style="rounded=0;whiteSpace=wrap;html=1;dashed=1;dashPattern=8 8;sketch=1;curveFitting=1;jiggle=2;fillColor=none;" vertex="1" parent="1">
          <mxGeometry x="390" y="520" width="320" height="200" as="geometry" />
        </mxCell>
        <mxCell id="PP6BNEFwQDtXV-yD8yWl-10" value="Deployment" style="sketch=0;html=1;dashed=0;whitespace=wrap;fillColor=#2875E2;strokeColor=#ffffff;points=[[0.005,0.63,0],[0.1,0.2,0],[0.9,0.2,0],[0.5,0,0],[0.995,0.63,0],[0.72,0.99,0],[0.5,1,0],[0.28,0.99,0]];verticalLabelPosition=bottom;align=center;verticalAlign=top;shape=mxgraph.kubernetes.icon;prIcon=deploy" parent="1" vertex="1">
          <mxGeometry x="485.18851851851855" y="540" width="74.96370370370371" height="50" as="geometry" />
        </mxCell>
        <mxCell id="ssHwQCeSZ3BFbUvAovpc-10" value="Service Account" style="sketch=0;html=1;dashed=0;whitespace=wrap;fillColor=#2875E2;strokeColor=#ffffff;points=[[0.005,0.63,0],[0.1,0.2,0],[0.9,0.2,0],[0.5,0,0],[0.995,0.63,0],[0.72,0.99,0],[0.5,1,0],[0.28,0.99,0]];verticalLabelPosition=bottom;align=center;verticalAlign=top;shape=mxgraph.kubernetes.icon;prIcon=sa" parent="1" vertex="1">
          <mxGeometry x="412.96777777777777" y="541" width="62.96296296296296" height="48" as="geometry" />
        </mxCell>
        <mxCell id="ssHwQCeSZ3BFbUvAovpc-8" value="HPA" style="sketch=0;html=1;dashed=0;whitespace=wrap;fillColor=#2875E2;strokeColor=#ffffff;points=[[0.005,0.63,0],[0.1,0.2,0],[0.9,0.2,0],[0.5,0,0],[0.995,0.63,0],[0.72,0.99,0],[0.5,1,0],[0.28,0.99,0]];verticalLabelPosition=bottom;align=center;verticalAlign=top;shape=mxgraph.kubernetes.icon;prIcon=hpa" parent="1" vertex="1">
          <mxGeometry x="570.9318518518519" y="541" width="62.96296296296296" height="48" as="geometry" />
        </mxCell>
        <mxCell id="PP6BNEFwQDtXV-yD8yWl-11" value="Services" style="sketch=0;html=1;dashed=0;whitespace=wrap;fillColor=#2875E2;strokeColor=#ffffff;points=[[0.005,0.63,0],[0.1,0.2,0],[0.9,0.2,0],[0.5,0,0],[0.995,0.63,0],[0.72,0.99,0],[0.5,1,0],[0.28,0.99,0]];verticalLabelPosition=bottom;align=center;verticalAlign=top;shape=mxgraph.kubernetes.icon;prIcon=svc" parent="1" vertex="1">
          <mxGeometry x="555.1911111111111" y="625" width="94.44444444444446" height="50" as="geometry" />
        </mxCell>
        <mxCell id="PP6BNEFwQDtXV-yD8yWl-12" value="Ingresses" style="sketch=0;html=1;dashed=0;whitespace=wrap;fillColor=#2875E2;strokeColor=#ffffff;points=[[0.005,0.63,0],[0.1,0.2,0],[0.9,0.2,0],[0.5,0,0],[0.995,0.63,0],[0.72,0.99,0],[0.5,1,0],[0.28,0.99,0]];verticalLabelPosition=bottom;align=center;verticalAlign=top;shape=mxgraph.kubernetes.icon;prIcon=ing" parent="1" vertex="1">
          <mxGeometry x="492.21518518518525" y="625" width="60.91037037037038" height="52" as="geometry" />
        </mxCell>
        <mxCell id="ssHwQCeSZ3BFbUvAovpc-11" value="Secret" style="sketch=0;html=1;dashed=0;whitespace=wrap;fillColor=#2875E2;strokeColor=#ffffff;points=[[0.005,0.63,0],[0.1,0.2,0],[0.9,0.2,0],[0.5,0,0],[0.995,0.63,0],[0.72,0.99,0],[0.5,1,0],[0.28,0.99,0]];verticalLabelPosition=bottom;align=center;verticalAlign=top;shape=mxgraph.kubernetes.icon;prIcon=secret" parent="1" vertex="1">
          <mxGeometry x="412.96777777777777" y="629" width="62.96296296296296" height="48" as="geometry" />
        </mxCell>
        <mxCell id="WffEjWekmCnNmr8jsu16-1" value="Volumes" style="sketch=0;html=1;dashed=0;whitespace=wrap;fillColor=#2875E2;strokeColor=#ffffff;points=[[0.005,0.63,0],[0.1,0.2,0],[0.9,0.2,0],[0.5,0,0],[0.995,0.63,0],[0.72,0.99,0],[0.5,1,0],[0.28,0.99,0]];verticalLabelPosition=bottom;align=center;verticalAlign=top;shape=mxgraph.kubernetes.icon;prIcon=vol" parent="1" vertex="1">
          <mxGeometry x="645.19" y="596" width="50" height="48" as="geometry" />
        </mxCell>
        <mxCell id="ssHwQCeSZ3BFbUvAovpc-9" value="Namespace&lt;br&gt;Name: projectId" style="sketch=0;html=1;dashed=0;whitespace=wrap;fillColor=#2875E2;strokeColor=#ffffff;points=[[0.005,0.63,0],[0.1,0.2,0],[0.9,0.2,0],[0.5,0,0],[0.995,0.63,0],[0.72,0.99,0],[0.5,1,0],[0.28,0.99,0]];verticalLabelPosition=bottom;align=center;verticalAlign=top;shape=mxgraph.kubernetes.icon;prIcon=ns" parent="1" vertex="1">
          <mxGeometry x="360.0022222222222" y="700" width="62.96296296296296" height="48" as="geometry" />
        </mxCell>
        <mxCell id="8yS_gbXwdCy-gXgY2OxM-5" value="" style="rounded=1;whiteSpace=wrap;html=1;fillColor=none;sketch=1;curveFitting=1;jiggle=2;" vertex="1" parent="1">
          <mxGeometry x="485.19" y="303" width="190" height="80" as="geometry" />
        </mxCell>
        <mxCell id="PP6BNEFwQDtXV-yD8yWl-3" value="" style="shape=image;verticalLabelPosition=bottom;labelBackgroundColor=default;verticalAlign=top;aspect=fixed;imageAspect=0;image=https://a.storyblok.com/f/88751/1702x2049/619c584101/svelte_logo.png;" parent="1" vertex="1">
          <mxGeometry x="510.19" y="313" width="50" height="60.18" as="geometry" />
        </mxCell>
        <mxCell id="ssHwQCeSZ3BFbUvAovpc-1" value="Frontend" style="text;html=1;strokeColor=none;fillColor=none;align=center;verticalAlign=middle;whiteSpace=wrap;rounded=0;" parent="1" vertex="1">
          <mxGeometry x="590.19" y="328.09000000000003" width="60" height="30" as="geometry" />
        </mxCell>
        <mxCell id="8yS_gbXwdCy-gXgY2OxM-7" style="edgeStyle=orthogonalEdgeStyle;rounded=0;orthogonalLoop=1;jettySize=auto;html=1;entryX=0.5;entryY=1;entryDx=0;entryDy=0;sketch=1;curveFitting=1;jiggle=2;startArrow=classic;startFill=1;" edge="1" parent="1" source="8yS_gbXwdCy-gXgY2OxM-6" target="8yS_gbXwdCy-gXgY2OxM-5">
          <mxGeometry relative="1" as="geometry" />
        </mxCell>
        <mxCell id="8yS_gbXwdCy-gXgY2OxM-6" value="" style="rounded=1;whiteSpace=wrap;html=1;fillColor=none;sketch=1;curveFitting=1;jiggle=2;" vertex="1" parent="1">
          <mxGeometry x="485.19" y="413" width="190" height="80" as="geometry" />
        </mxCell>
        <mxCell id="ssHwQCeSZ3BFbUvAovpc-2" value="Backend" style="text;html=1;strokeColor=none;fillColor=none;align=center;verticalAlign=middle;whiteSpace=wrap;rounded=0;" parent="1" vertex="1">
          <mxGeometry x="595.19" y="440" width="60" height="30" as="geometry" />
        </mxCell>
        <mxCell id="8yS_gbXwdCy-gXgY2OxM-1" value="" style="shape=image;verticalLabelPosition=bottom;labelBackgroundColor=default;verticalAlign=top;aspect=fixed;imageAspect=0;image=data:image/png,iVBORw0KGgoAAAANSUhEUgAAASwAAAEsCAMAAABOo35HAAACu1BMVEVHcEwODhMODhMODhMNDRINDRINDRINDRIODhMODhMODhMODhMODhMNDRILCxAKCg4MDBENDRIODhMODhMODhMODhMNDRIZGR5GRkp0dHaPj5GTk5WKioxoaGs3NzoRERQNDRIODhMODhMODhNXV1u7u73v7+/9/f3////8/Pzm5uaioqQ8PD8ODhMODhMODhMXFxvw8PHe3t5gYGMNDRIODhMODhMODhMSEheNjY/5+fnp6epdXV8ODhMODhNeXmLy8vPW1tczMzYODhMeHiHCwsMODhMODhNQUFPz8/TV1dUnJyoKChCDg4VLS04ODhMMDBGfn6FlZWcODhMODhOhoaNubnLk5OWdnZ6RkZOQkJKWlpirq6yzs7TAwMHNzc7c3Nzq6uvi4uKFhYc1NTgVFRkQEBQfHyIoKCyCgoSjo6XFxcb19fb+/v7Hx8hDQ0YwMDRSUlV9fYDPz9AkJClNTVCJiYvx8fFYWFwcHCCampzf3+CxsbIUFBk0NDfd3d37+/uUlJbs7O3u7u8+PkEtLTIiIieLi40sLDDIyMnS0tNxcXPa2tt4eHvKysohISU5OT0qKi3n5+jr6+vl5eXc3N3R0dK9vb6BgYMuLjLt7e739/jh4eJsbG4rKy6mpqfY2NmGhojMzM1VVVgbGyCSkpRiYmVhYWT6+vrZ2dqYmJnb29y4uLmpqavj4+Nqam0JCQ3x8fJJSUy1tbYgICPExMX29vdycnQMDBIlJSkxMTS5ubpaWl34+PkODhNubnF2dngGBgxmZmhzc3XX19gODhMpKSxPT1KAgIKoqKrf399BQUTLy8x6enz5+folJSqOjpD09PWTk5Tb29u6urxHR0t9fX+/v8BWVlqtra7Gxsd8fH6urq8ODhMNDRIODhMODhMODhMODhMODhMODhOVlZdAQETQ0NEODhOh07SsAAAA6XRSTlMAIW6y3u/x69SgUxJz+/////S/CCq2/f////////////OMLMr///////////8PFbj//////4QCe///////RNr/////rP//NcL/////////mf7//wT/////////////////////////////////////////////////////////////////////////////////////////////////////////////////////////////////////////////Af///////wX//////////////////////////////7z3DGHGTIgX////3fL2GksAAAybSURBVHgB7NKFbQMwEEbhC7PtMDNdyuAyc1Nm2H+Q4g4nnfS/ET49+i8QDIUjUX3F4olkikRLpeMZY43Tl7Emm0vmSa5CsWTKlWqtrq9Gs9U2nW6KpOr1XXswHI1ZY5OZ2TlXSsyTTAuLbqmxzHpbWfWltXUSaaO0ubXNmtvZdZE9kqiwbw4OWXdHx+4kLzPW6Rlrr+Zj5yTQhb2csvaurl2QBIrd3LL6pnf2ngR68I+svsmTDT0LYPmXV1bf+M0WgQUsYAELWMACFrCABSxgAQtYwAIWsIAFLGABC1jAAhawgAUsYAELWMACFrAUBCxgAWv8Pvz4/G7vrvubytIAjhcYl3POGsU7RvME2SnDszuZlP3gWtnpzBkG1yYtnV5sKEUqqeBuRUpxd9cWd8+4u72M3eAk917uEGnDeX5/V7+VJEf7mNc3La1f/wEDBw1uZ1caa8jQdBeyhyQQ3XGujMwmqe8My/pgSLamJtbwEYKh1QTjnMvYkaNG9+vRXVMO68N0jvLPhSg4jxuTM3Z4rlpYrcZxaZ4xGBufM2GiTSGsvHyUjxoilwVjCzVVsDyNuQwmZKJDUbEiWCWlTAYXMnfOALsSWEMmCRlsmDx5SrwKWBOnChl8wt12EGFZDdmIgYRlXavJNMKyGia3mE5YVkOW+j5hWQ3FjGzCshq6sgjLcix9JmFZDdksj8JYKO4f/UP5kMTk2cpiIZNz0ufeqsO8jATJuTAH4z09imKJuNRe0+cvuNXCRWWLs5a8ttRh6iWSpquJJTIaLIMH08qX51WsEMa+KKYoiSU6rbSDTp5VKZkMpUGsXryCWChX20E/+5q10kgL1w1XEIuVNgPDFsxwowGWWK8eFrKxYFLJBmGgxTduUg8rYTGYtTmdSd3Y3MHKYYnJ7cG0LQZ/iGLOdPWwxmwF05YXMKkX5m8jLP9sM7g+FqYRVkDbDf4OWSPCCmhghj4Wn0VYAe1YKvSxdmqE5V+xwVz2rtY2wvJv9x5uFYuwuqdaxiKs+BHMKhZhzW+ij8UbE1ZAW5OEPlZ98I+wBiSg1Ct5NWEFtEXoYqHoRVj+OTdyqRc69hKWf6vmCX2sfWWE5d8URIPBv0T1sCZvBrO2dmBSN97WqRwWxu4Hkw4cFKj/fqI3qIeFfcE4zxbX/VY0FZYTD0Y5e40XNMl6X+hIA4MWDIs1skLRSM3p+6kDQK/ue1PlIWmQOFymJJZkR/o7wS/nG1lrExhKo/jOTaouORrfs3Ox0+7L4yzPbdbjaJ+2S90cpWEio7PCi9liSysb+9pQOWpE+uR8Zr6YDVlFlcrLJBm/UzITiNI0kTmQFuBaDHGsjbAsxlLnA2FZSyR1hiCxXv/bu2HqWM3CEq5eWnBYx/nTr/8jPNX5b+0uf6s5WOheUg5BpZ04ycPX2093/M+7NQQL5cFcCLKBJ473DFOnUpNQPPmvljUCS8Sdjodg0zRbuLJ3b9+gg6j77PM1AEskpORCDU87U4l1Xz5b3VjIzqVVQc0vsbV46blqxhLy/HAbREOFLdhfn69OLExOarQAoqT34l56rvqwkMeeWmOHaGlhE/ZsNWGh4OPbND0A0ZO9MX+mOrBQcDl1RudsiKoasacjjIWIjMukyl6DPBBlNRRPRQjr7jl27ozSiqz25XB/hIXI+J127eICHevOlVZeuDiw2A4PRliCZYzYsPN2B2el9G6+d1rhMqcGAREW23didvwm2+3MiAiLNTnqAUsRlhg5DaxFWJifBRYjLHa+FViLsBC3gNUIK/YDwgp+mSRhWV+AS1iERViERViERViERViWIizCIizCIizCIizCIizCIizCIizCanbEAGveJcLyr53BYXTscglhBbSESb34CRthBXRlstDd7LwfCCsgTwqi9A/F1WuEpVPJKRR+VkK0SQTC0qv4wj7OxL0Y73TVwIqwYNPwWZfnXU+61fV5pfX3OyHkaVWDhywfYtLyhYOL22VX2bWajOXLVrJo850WLbOHgWrIlsq5R0aaVjC3xYicysZXb6xsOr2Z11YzsSKQ8+Jc5EyYxxhL5v+Pyfw5BednfLTt4+6aglibGsYylBa7szOB5Z/LGdY00aYaVt468Wj3xScntBg9/IBSWINHcPmIIWOd2uz1KoTVLw7lI4fIE9rs96iCpdXnMqiQz0lJVASrfC2XQSaw20A1sHbvSZbBhskdPtFUwMr9lMngY5n9CctybN4AwrIca7GKsKyGbGM7wrIaOtIIy3IsvZCwrIZitUZYVmMFy9XGQhS3Ql/SNHRnqYyFguWPOefr+r6EOPGw++L5Rqe6WCiOfHa0/SJfZwZ2zis6nTpGJptwiSNDlMVCR8VmG9yXrV2PXt1MjgXHhM9VxUJHihcC2p03Ao20UPRSFAvZqXag18KecUZa/DNFscS5MqN32SnQAOuUXU0sXuEBgwrnGr3Pa+VKYqFcCYb1QdTHSvWqiRXbGQybPlkYYHVXE2vdtD9ziSlhGXatLdfH+qKcsHQOh7d64ythaT31sdhq8I+wPO/oYmHcl4QVkDdHF0uM6UFYAQ3R38zAc9oRVkDbXKj3LmwsKIoV+xUYZT+YrIvVaZqqWI48MKrsnNB/luVVFEuyrzXQz9uYoR5v/jegLFb6RNDN09uBUic+breyWIjDPKDTgSL9Nahi8n4IAVZd7BWFWFKMz7KDf7ZVx/N1rTCujy0UWE/zC9GIJUVGUSu4P63dlQuTBOpaica7IRRY37LUVtGIJYVj1MVFrby+WiUWzt5+IXUfM7J6rRmEBOuFF2M/iUosiSxu3uV6vi7PnbfOzTmiwdt9MQRCg1XrGTZqWbRO3wvGfTGza0yF+533IURYMbVfdH+WHWVY1kO2LiUeQobVsiM6ZiU+nlgoRGmeE0KHFVPrW5Sfbl+4SXvcsJCJqat3AIQOy6f17HfMkb7x6ujPwlSjiZHHQsZdpY1W2SHEWDHf//Djd4yHr5ONIo6FjhGfHR1sAwgxlq/nf/q5Ttcw9eOT/LPIY3WaMNOrQTiwfJ39Pkz98mN1YMn8zE9P9Pu4KgxY4ez7rtWAJREF43Hz2ja/ZCcsS6Hg7pGzZlcRllUvtm/nGjthWeXi14fOJyyrCfy0s42wrN+V23wTYVlNxPauUhoLGb8bYwIRzbQSfvWoi4XMVdCtza3W5lxukhnrNt1lITp9oyyWcLXd2+yA81bl3tz5Hw/fnrJ2npsbcrH0VYpiiaT3ssE/rXxr87WGh9cgqyhXEkvMydNAN++2HGmktW6xilgop9jAqAUXXELqxluXK4jFWiwE48qnOFDqJfZdUQ8L2RIwK7tCoP77jVUQy5EHpq06YrRxYLd6WOu+AtO0Cwz1F4j0UBBrGpj31XhdLIz7hrACWtBC/z3ZFMIK6FobbrD3TiMs/7T6ljfwEBZ8rY/FPs0FqxHWb/GE5Z92grAsY3laE5ZlrPjLTB/rMmEF9PscIfXie9oRln99EfWxKqsIy6/ie+9IT0rzPwHTJtwb0KKXO6IPmLVmqZDSYO+vgiOlOfFg3Kp6xkP3ZephoesiGGX74DJDqR+7XKIelmTpH4Ju2vy3kgytJJ+lKYgl2W/TNAio6kzDUimkUejaBipiIVtxo/Aa3EmzVcUXfr6+TSYylIaxywsUxPIlcGnrYY1utfrrisrLKxKE+YmSiH2UXUWDgnN2u12cM4EoTWMFb6iK5QvvZmm593pazGY1tmcwYVlM7GsKhGUtdE+xE5a1UJxqBYRlKWSj3gfCsmiVMwgIy1IoKicCYVlK5J9OhMcey5vDZdAhX9HLC48/lqd10FiY7No40AYKYEEjhkFSOVK/8QIogTV7nwhq75wr9WIJgCJYzhkMH1kKM0/tjQdQBgsKR3B8pO3R8vraLWecACphwfRUwRCtCOHdm5Edky8fz2qfDb6UwoKFQzs42K6HxplAt6NT5tzzFQ369yixgy/lsMC+PO/GsIeWcqMo7cumV7YOzraBLwWwIhRhEVbkIyzCIizCIizCIizCIizCIizCIizCIizCIizCIizCIizCIizCIizCIizCIizCIizCGg2WI6yrEP3dYE9GAOtsHb5xE0R7Wn3+R0wE+pmlL4RoL74eqxMJrJ++c2yHaO9o7Iu1I4H1/I/s0/kQ3cV/wZ6pFROJfvhOzsqGaM45Nq7uCzER6ftn0fFZCURv7d5KOPSP52MiU61v0T2qaa4G0Zjm3d/WIV79e0ykqtXxRRabuqTXe9FXWkq3Tqzu66/ERK6WtZ95kXGU0Rcm87p/vPnPmEh2rNYL3z5dF6Ovt5/s+ubf/x3j638s0Vn/NA6IhwAAAABJRU5ErkJggg==;" vertex="1" parent="1">
          <mxGeometry x="510.19" y="430" width="50" height="50" as="geometry" />
        </mxCell>
      </root>
    </mxGraphModel>
  </diagram>
</mxfile>
